<svg width="16" height="17" viewBox="0 0 16 17" fill="none" xmlns="http://www.w3.org/2000/svg">
  <path d="M5.33333 4.33334C5.05999 4.33334 4.83333 4.10668 4.83333 3.83334V1.83334C4.83333 1.56001 5.05999 1.33334 5.33333 1.33334C5.60666 1.33334 5.83333 1.56001 5.83333 1.83334V3.83334C5.83333 4.10668 5.60666 4.33334 5.33333 4.33334Z" fill="#1C274C" />
  <path d="M10.6667 4.33334C10.3933 4.33334 10.1667 4.10668 10.1667 3.83334V1.83334C10.1667 1.56001 10.3933 1.33334 10.6667 1.33334C10.94 1.33334 11.1667 1.56001 11.1667 1.83334V3.83334C11.1667 4.10668 10.94 4.33334 10.6667 4.33334Z" fill="#1C274C" />
  <path d="M5.66667 10.1667C5.58 10.1667 5.49333 10.1467 5.41333 10.1133C5.32667 10.08 5.26 10.0333 5.19333 9.97333C5.07333 9.84667 5 9.68 5 9.5C5 9.41334 5.02 9.32667 5.05333 9.24667C5.08667 9.16667 5.13333 9.09334 5.19333 9.02668C5.26 8.96668 5.32667 8.92 5.41333 8.88666C5.65333 8.78666 5.95333 8.84001 6.14 9.02668C6.26 9.15334 6.33333 9.32667 6.33333 9.5C6.33333 9.54 6.32667 9.58668 6.32 9.63335C6.31333 9.67335 6.3 9.71334 6.28 9.75334C6.26667 9.79334 6.24667 9.83334 6.22 9.87334C6.2 9.90667 6.16667 9.94 6.14 9.97333C6.01333 10.0933 5.84 10.1667 5.66667 10.1667Z" fill="#1C274C" />
  <path d="M7.99999 10.1667C7.91333 10.1667 7.82666 10.1467 7.74666 10.1133C7.65999 10.08 7.59333 10.0333 7.52666 9.97333C7.40666 9.84667 7.33333 9.68001 7.33333 9.50001C7.33333 9.41334 7.35333 9.32667 7.38666 9.24667C7.42 9.16667 7.46666 9.09335 7.52666 9.02668C7.59333 8.96668 7.65999 8.92 7.74666 8.88666C7.98666 8.78 8.28666 8.84001 8.47333 9.02668C8.59333 9.15335 8.66666 9.32667 8.66666 9.50001C8.66666 9.54001 8.65999 9.58668 8.65333 9.63335C8.64666 9.67335 8.63333 9.71334 8.61333 9.75334C8.59999 9.79334 8.58 9.83334 8.55333 9.87334C8.53333 9.90667 8.49999 9.94 8.47333 9.97333C8.34666 10.0933 8.17333 10.1667 7.99999 10.1667Z" fill="#1C274C" />
  <path d="M10.3333 10.1667C10.2467 10.1667 10.16 10.1467 10.08 10.1133C9.99334 10.08 9.92667 10.0333 9.86001 9.97333C9.83334 9.94 9.80667 9.90667 9.78 9.87334C9.75334 9.83334 9.73334 9.79334 9.72001 9.75334C9.70001 9.71334 9.68667 9.67335 9.68001 9.63335C9.67334 9.58668 9.66667 9.54001 9.66667 9.50001C9.66667 9.32667 9.74001 9.15335 9.86001 9.02668C9.92667 8.96668 9.99334 8.92 10.08 8.88666C10.3267 8.78 10.62 8.84001 10.8067 9.02668C10.9267 9.15335 11 9.32667 11 9.50001C11 9.54001 10.9933 9.58668 10.9867 9.63335C10.98 9.67335 10.9667 9.71334 10.9467 9.75334C10.9333 9.79334 10.9133 9.83334 10.8867 9.87334C10.8667 9.90667 10.8333 9.94 10.8067 9.97333C10.68 10.0933 10.5067 10.1667 10.3333 10.1667Z" fill="#1C274C" />
  <path d="M5.66667 12.5C5.58 12.5 5.49333 12.48 5.41333 12.4467C5.33333 12.4134 5.26 12.3667 5.19333 12.3067C5.07333 12.18 5 12.0067 5 11.8333C5 11.7467 5.02 11.66 5.05333 11.58C5.08667 11.4933 5.13333 11.42 5.19333 11.36C5.44 11.1134 5.89333 11.1134 6.14 11.36C6.26 11.4867 6.33333 11.66 6.33333 11.8333C6.33333 12.0067 6.26 12.18 6.14 12.3067C6.01333 12.4267 5.84 12.5 5.66667 12.5Z" fill="#1C274C" />
  <path d="M7.99999 12.5C7.82666 12.5 7.65333 12.4267 7.52666 12.3067C7.40666 12.18 7.33333 12.0067 7.33333 11.8333C7.33333 11.7467 7.35333 11.66 7.38666 11.58C7.42 11.4933 7.46666 11.42 7.52666 11.36C7.77333 11.1134 8.22666 11.1134 8.47333 11.36C8.53333 11.42 8.57999 11.4933 8.61333 11.58C8.64666 11.66 8.66666 11.7467 8.66666 11.8333C8.66666 12.0067 8.59333 12.18 8.47333 12.3067C8.34666 12.4267 8.17333 12.5 7.99999 12.5Z" fill="#1C274C" />
  <path d="M10.3333 12.5C10.16 12.5 9.98667 12.4267 9.86001 12.3067C9.80001 12.2467 9.75334 12.1734 9.72001 12.0867C9.68667 12.0067 9.66667 11.92 9.66667 11.8334C9.66667 11.7467 9.68667 11.66 9.72001 11.58C9.75334 11.4934 9.80001 11.42 9.86001 11.36C10.0133 11.2067 10.2467 11.1334 10.46 11.18C10.5067 11.1867 10.5467 11.2 10.5867 11.22C10.6267 11.2334 10.6667 11.2534 10.7067 11.28C10.74 11.3 10.7733 11.3334 10.8067 11.36C10.9267 11.4867 11 11.66 11 11.8334C11 12.0067 10.9267 12.18 10.8067 12.3067C10.68 12.4267 10.5067 12.5 10.3333 12.5Z" fill="#1C274C" />
  <path d="M13.6667 7.05997H2.33333C2.05999 7.05997 1.83333 6.8333 1.83333 6.55997C1.83333 6.28663 2.05999 6.05997 2.33333 6.05997H13.6667C13.94 6.05997 14.1667 6.28663 14.1667 6.55997C14.1667 6.8333 13.94 7.05997 13.6667 7.05997Z" fill="#1C274C" />
  <path d="M10.6667 15.6667H5.33333C2.9 15.6667 1.5 14.2667 1.5 11.8333V6.16668C1.5 3.73334 2.9 2.33334 5.33333 2.33334H10.6667C13.1 2.33334 14.5 3.73334 14.5 6.16668V11.8333C14.5 14.2667 13.1 15.6667 10.6667 15.6667ZM5.33333 3.33334C3.42667 3.33334 2.5 4.26001 2.5 6.16668V11.8333C2.5 13.74 3.42667 14.6667 5.33333 14.6667H10.6667C12.5733 14.6667 13.5 13.74 13.5 11.8333V6.16668C13.5 4.26001 12.5733 3.33334 10.6667 3.33334H5.33333Z" fill="#1C274C" />
</svg>