<svg width="32" height="32" viewBox="0 0 32 32" fill="none" xmlns="http://www.w3.org/2000/svg">
<path d="M27.3798 4.61928C25.4272 2.66666 22.2845 2.66666 15.9991 2.66666C9.71368 2.66666 6.57098 2.66666 4.61836 4.61928C3.60838 5.62926 3.1208 6.95764 2.88542 8.87463C3.59297 8.08708 4.44315 7.43103 5.39782 6.9446C6.4398 6.41369 7.55553 6.19839 8.79089 6.09746C9.98439 5.99995 11.4529 5.99997 13.2486 5.99999H18.7495C20.5452 5.99997 22.0138 5.99995 23.2073 6.09746C24.4426 6.19839 25.5583 6.41369 26.6003 6.9446C27.555 7.43103 28.4052 8.08708 29.1127 8.87463C28.8773 6.95764 28.3898 5.62926 27.3798 4.61928Z" fill="#3AADA8"/>
<path fill-rule="evenodd" clip-rule="evenodd" d="M2.66667 18.6667C2.66667 14.933 2.66667 13.0661 3.39329 11.6401C4.03245 10.3856 5.05232 9.36578 6.30673 8.72662C7.73281 8 9.59965 8 13.3333 8H18.6667C22.4004 8 24.2672 8 25.6933 8.72662C26.9477 9.36578 27.9676 10.3856 28.6067 11.6401C29.3333 13.0661 29.3333 14.933 29.3333 18.6667C29.3333 22.4004 29.3333 24.2672 28.6067 25.6933C27.9676 26.9477 26.9477 27.9676 25.6933 28.6067C24.2672 29.3333 22.4004 29.3333 18.6667 29.3333H13.3333C9.59965 29.3333 7.73281 29.3333 6.30673 28.6067C5.05232 27.9676 4.03245 26.9477 3.39329 25.6933C2.66667 24.2672 2.66667 22.4004 2.66667 18.6667ZM16.7071 13.9596C16.5196 13.772 16.2652 13.6667 16 13.6667C15.7348 13.6667 15.4804 13.772 15.2929 13.9596L11.9596 17.2929C11.569 17.6834 11.569 18.3166 11.9596 18.7071C12.3501 19.0976 12.9833 19.0976 13.3738 18.7071L15 17.0809V22.6667C15 23.219 15.4477 23.6667 16 23.6667C16.5523 23.6667 17 23.219 17 22.6667V17.0809L18.6262 18.7071C19.0168 19.0976 19.6499 19.0976 20.0404 18.7071C20.431 18.3166 20.431 17.6834 20.0404 17.2929L16.7071 13.9596Z" fill="#3AADA8"/>
</svg>
